HIERARCHY
ROOT Hips
{
	OFFSET -0.001795 -0.223333 0.028219
	CHANNELS 6 Xposition Yposition Zposition Zrotation Yrotation Xrotation 
	JOINT LeftUpLeg
	{
		OFFSET 0.069520 -0.091406 -0.006815
		CHANNELS 3 Zrotation Yrotation Xrotation
		JOINT LeftLeg
		{
			OFFSET 0.034277 -0.375199 -0.004496
			CHANNELS 3 Zrotation Yrotation Xrotation
			JOINT LeftFoot
			{
				OFFSET -0.013596 -0.397961 -0.043693
				CHANNELS 3 Zrotation Yrotation Xrotation
				JOINT LeftToe
				{
					OFFSET 0.026358 -0.055791 0.119288
					CHANNELS 3 Zrotation Yrotation Xrotation
					End Site
					{
						OFFSET 0.000000 0.000000 0.000000
					}
				}
			}
		}
	}
	JOINT RightUpLeg
	{
		OFFSET -0.067670 -0.090522 -0.004320
		CHANNELS 3 Zrotation Yrotation Xrotation
		JOINT RightLeg
		{
			OFFSET -0.038290 -0.382569 -0.008850
			CHANNELS 3 Zrotation Yrotation Xrotation
			JOINT RightFoot
			{
				OFFSET 0.015774 -0.398415 -0.042312
				CHANNELS 3 Zrotation Yrotation Xrotation
				JOINT RightToe
				{
					OFFSET -0.025372 -0.048144 0.123348
					CHANNELS 3 Zrotation Yrotation Xrotation
					End Site
					{
						OFFSET 0.000000 0.000000 0.000000
					}
				}
			}
		}
	}
	JOINT Spine
	{
		OFFSET -0.002533 0.108963 -0.026696
		CHANNELS 3 Zrotation Yrotation Xrotation
		JOINT Spine1
		{
			OFFSET 0.005487 0.135180 0.001092
			CHANNELS 3 Zrotation Yrotation Xrotation
			JOINT Spine2
			{
				OFFSET 0.001457 0.052922 0.025425
				CHANNELS 3 Zrotation Yrotation Xrotation
				JOINT Neck
				{
					OFFSET -0.002778 0.213870 -0.042857
					CHANNELS 3 Zrotation Yrotation Xrotation
					JOINT Head
					{
						OFFSET 0.005152 0.064970 0.051349
						CHANNELS 3 Zrotation Yrotation Xrotation
						End Site
						{
							OFFSET 0.000000 0.000000 0.000000
						}
					}
				}
				JOINT LeftShoulder
				{
					OFFSET 0.078845 0.121749 -0.034090
					CHANNELS 3 Zrotation Yrotation Xrotation
					JOINT LeftArm
					{
						OFFSET 0.090977 0.030469 -0.008868
						CHANNELS 3 Zrotation Yrotation Xrotation
						JOINT LeftForeArm
						{
							OFFSET 0.259612 -0.012772 -0.027456
							CHANNELS 3 Zrotation Yrotation Xrotation
							JOINT LeftHand
							{
								OFFSET 0.249234 0.008986 -0.001171
								CHANNELS 3 Zrotation Yrotation Xrotation
								End Site
								{
									OFFSET 0.000000 0.000000 0.000000
								}
							}
						}
					}
				}
				JOINT RightShoulder
				{
					OFFSET -0.081759 0.118833 -0.038615
					CHANNELS 3 Zrotation Yrotation Xrotation
					JOINT RightArm
					{
						OFFSET -0.096012 0.032551 -0.009143
						CHANNELS 3 Zrotation Yrotation Xrotation
						JOINT RightForeArm
						{
							OFFSET -0.253742 -0.013329 -0.021401
							CHANNELS 3 Zrotation Yrotation Xrotation
							JOINT RightHand
							{
								OFFSET -0.255298 0.007772 -0.005559
								CHANNELS 3 Zrotation Yrotation Xrotation
								End Site
								{
									OFFSET 0.000000 0.000000 0.000000
								}
							}
						}
					}
				}
			}
		}
	}
}
MOTION
Frames: 13
Frame Time: 0.050000
0.340506 0.741485 -0.420798 -3.865398 -13.038040 7.745279 17.277748 5.818841 -44.332473 -7.393852 9.877268 74.521512 4.529213 -0.649867 -23.982544 0.000000 0.000000 0.000000 -19.327273 0.672349 -45.502989 27.103937 -13.369907 63.262938 -7.656396 -19.123364 -15.197439 0.000000 0.000000 0.000000 2.516322 0.893317 75.638092 -4.527842 1.196369 -36.244149 -3.458838 5.411938 24.712043 17.071754 -1.289497 -54.911092 0.000000 0.000000 0.000000 -20.636325 -21.107452 9.740971 -34.740695 -21.541580 0.167123 42.811274 -40.554037 -14.308117 0.000000 0.000000 0.000000 31.724475 2.857399 1.323154 36.477907 13.337298 -1.970466 -22.159298 56.820603 -8.173384 0.000000 0.000000 0.000000 
0.340517 0.777171 -0.419537 -4.089035 -13.272303 9.452364 16.718923 5.177647 -41.971855 -7.668532 9.181618 67.145720 3.696465 -0.571788 -20.523696 0.000000 0.000000 0.000000 -16.376936 1.561523 -42.668388 23.947092 -9.314187 54.853930 -8.481967 -22.012449 -11.700969 0.000000 0.000000 0.000000 2.349947 1.016272 72.246398 -4.038801 1.151776 -36.409799 -2.957598 6.295921 25.598977 16.885480 -1.415878 -53.829037 0.000000 0.000000 0.000000 -22.642834 -20.707636 9.715647 -34.478402 -20.894090 -0.041839 38.703023 -40.134495 -12.527279 0.000000 0.000000 0.000000 31.686727 2.444963 1.177404 36.980538 12.803435 -2.194624 -19.613653 54.023049 -6.361465 0.000000 0.000000 0.000000 
0.340550 0.803726 -0.419892 -4.056644 -13.898405 10.494607 16.171969 4.811175 -40.488663 -7.628437 8.499306 61.568304 2.530459 -0.823988 -15.347019 0.000000 0.000000 0.000000 -14.521351 2.116577 -40.953741 21.843253 -6.907603 47.854118 -10.199096 -26.770749 -4.890871 0.000000 0.000000 0.000000 2.224143 1.274387 69.734605 -4.557332 1.225864 -35.975285 -2.946557 6.101713 25.900863 17.373817 -1.685163 -53.358830 0.000000 0.000000 0.000000 -24.102728 -20.518982 10.048872 -32.953291 -20.314813 -0.325283 36.345528 -38.492266 -11.028674 0.000000 0.000000 0.000000 32.335995 2.348891 0.795069 37.024067 12.065348 -2.337522 -17.042995 52.836988 -5.074167 0.000000 0.000000 0.000000 
0.340571 0.821859 -0.421151 -4.175654 -13.982331 11.110337 15.576373 4.358717 -39.149789 -6.957362 7.327154 57.120680 1.648383 -1.541119 -12.371345 0.000000 0.000000 0.000000 -12.814778 2.465593 -39.237093 19.537114 -5.153113 42.427080 -11.704652 -29.791430 0.254776 0.000000 0.000000 0.000000 2.054012 1.357221 68.061795 -4.084230 1.185480 -36.035519 -2.758745 6.477309 26.704840 17.518349 -1.880146 -52.671844 0.000000 0.000000 0.000000 -25.449299 -21.027431 10.561966 -32.135844 -19.802578 -0.515689 34.743636 -37.365900 -10.117583 0.000000 0.000000 0.000000 32.435948 2.361811 0.834967 37.263159 11.984428 -2.417071 -15.736948 50.880207 -4.250650 0.000000 0.000000 0.000000 
0.340526 0.832315 -0.422186 -4.506241 -14.473300 11.349670 15.249493 4.239363 -38.598558 -6.326035 6.732130 55.237484 1.419138 -0.615278 -9.406629 0.000000 0.000000 0.000000 -11.797761 2.677107 -37.886300 18.610527 -4.313539 38.376176 -13.018341 -31.963411 4.269993 0.000000 0.000000 0.000000 2.270420 1.324348 66.859566 -4.320833 1.215275 -35.675304 -2.837110 6.506317 26.679162 17.685136 -2.009308 -52.342560 0.000000 0.000000 0.000000 -26.361118 -21.206054 10.914815 -30.638579 -19.675719 -0.617980 33.244647 -36.217409 -9.275306 0.000000 0.000000 0.000000 32.677014 2.331932 0.676537 38.005030 11.991301 -2.405565 -15.452922 49.365564 -3.975023 0.000000 0.000000 0.000000 
0.340240 0.840729 -0.422298 -4.783210 -14.643248 12.078629 14.925562 4.099342 -38.307309 -5.722919 6.024369 52.911112 1.230791 -0.186733 -7.498982 0.000000 0.000000 0.000000 -11.179255 2.787465 -37.039727 17.896336 -3.804697 35.636884 -12.661058 -31.119455 5.192066 0.000000 0.000000 0.000000 2.354271 1.267210 65.574652 -4.309013 1.220792 -35.718338 -2.421542 6.912381 27.167590 17.637337 -2.208008 -51.350778 0.000000 0.000000 0.000000 -26.810425 -22.046298 11.511233 -30.566581 -19.479596 -0.673027 33.316718 -35.511818 -9.107130 0.000000 0.000000 0.000000 33.094387 2.523141 0.875165 38.071966 12.157431 -2.414922 -15.492141 48.265806 -3.865425 0.000000 0.000000 0.000000 
0.339686 0.845986 -0.421525 -5.088684 -15.221956 12.458966 14.831506 4.077988 -37.673235 -5.234649 5.746568 51.944772 1.296626 0.024991 -7.529201 0.000000 0.000000 0.000000 -10.704573 2.956035 -36.746091 17.572556 -3.507882 34.441997 -12.270941 -30.243188 6.395430 0.000000 0.000000 0.000000 2.212853 1.525070 64.542667 -4.124076 1.208206 -35.683660 -2.163590 7.456482 27.552556 17.679516 -2.125826 -51.793447 0.000000 0.000000 0.000000 -26.992842 -21.593471 11.183015 -30.920566 -19.471065 -0.678757 33.758437 -35.668950 -9.288554 0.000000 0.000000 0.000000 33.513143 2.629720 1.042903 38.093812 12.418295 -2.396073 -15.963072 47.703368 -3.980361 0.000000 0.000000 0.000000 
0.338832 0.849923 -0.420200 -5.233562 -15.342760 12.944004 14.762854 4.010257 -37.320593 -5.126852 5.551157 50.755578 1.448697 0.491467 -7.391424 0.000000 0.000000 0.000000 -10.404792 2.986122 -36.159801 17.270381 -3.284474 32.760360 -12.041274 -29.824858 6.448719 0.000000 0.000000 0.000000 2.111105 1.531221 63.289417 -3.922804 1.177411 -35.337441 -1.921247 8.119777 27.352105 17.799912 -2.436638 -50.220657 0.000000 0.000000 0.000000 -28.216004 -21.989977 11.432351 -29.990290 -18.331615 -0.872870 34.309499 -36.721281 -9.847191 0.000000 0.000000 0.000000 34.590378 2.933808 1.433339 36.910565 11.742899 -2.585556 -16.215379 47.648355 -4.128489 0.000000 0.000000 0.000000 
0.337677 0.851260 -0.418785 -5.426146 -15.512219 13.245266 14.973948 4.107314 -37.211877 -4.951347 5.464562 50.571965 1.220286 -0.078540 -7.452341 0.000000 0.000000 0.000000 -10.244025 3.070604 -36.330558 17.374175 -3.288937 32.644532 -11.956058 -29.624387 7.084687 0.000000 0.000000 0.000000 2.040324 1.605661 62.758272 -3.768269 1.164857 -35.021690 -1.780686 8.482018 27.228741 17.610819 -2.253401 -50.621327 0.000000 0.000000 0.000000 -27.936546 -21.859962 11.216589 -30.383585 -18.316952 -0.840171 35.419163 -37.122640 -10.357811 0.000000 0.000000 0.000000 34.693227 3.156032 1.700761 36.527288 12.060929 -2.499232 -16.630366 47.516746 -4.286702 0.000000 0.000000 0.000000 
0.336447 0.855186 -0.417556 -5.400283 -15.264376 13.276195 14.820441 3.863810 -36.430362 -4.998172 5.243658 49.143282 1.449749 0.542407 -7.382259 0.000000 0.000000 0.000000 -9.973663 3.049352 -35.897259 16.965916 -3.152256 32.074906 -11.903953 -29.353728 8.157776 0.000000 0.000000 0.000000 1.885848 1.579253 62.375588 -3.527630 1.140013 -35.028066 -1.509249 8.849152 27.273287 17.712251 -2.289006 -50.451719 0.000000 0.000000 0.000000 -28.011017 -22.010503 11.170987 -30.542671 -18.342910 -0.796042 36.821088 -37.754477 -11.078746 0.000000 0.000000 0.000000 34.702909 3.236682 1.945018 36.045046 12.254062 -2.481148 -16.734994 47.975369 -4.366375 0.000000 0.000000 0.000000 
0.335303 0.860227 -0.416591 -5.508492 -15.191091 13.523682 14.950436 3.751122 -35.587815 -5.335988 5.202247 47.380552 1.685335 1.236230 -7.174202 0.000000 0.000000 0.000000 -9.512496 3.095333 -35.477029 16.405690 -2.925103 31.098381 -11.715470 -28.872824 9.390298 0.000000 0.000000 0.000000 1.818453 1.539764 61.715499 -3.513956 1.142550 -34.571044 -1.248516 9.027049 27.123703 17.827665 -2.261745 -50.721814 0.000000 0.000000 0.000000 -28.049490 -21.729123 10.942098 -30.488562 -18.249932 -0.801103 37.900631 -39.216051 -11.968884 0.000000 0.000000 0.000000 34.789271 3.571267 2.233955 35.577811 12.361836 -2.435304 -17.342579 48.699830 -4.734273 0.000000 0.000000 0.000000 
0.334469 0.865329 -0.415886 -5.526185 -14.932032 13.876653 15.005816 3.605709 -34.912092 -6.057877 5.247919 45.059383 2.324501 3.116553 -6.238652 0.000000 0.000000 0.000000 -9.144246 3.116329 -35.191285 15.787125 -2.716223 30.110128 -11.595422 -28.526391 10.733837 0.000000 0.000000 0.000000 1.806254 1.411372 61.172446 -3.487429 1.147780 -34.817562 -1.100574 9.135155 27.354164 17.996473 -2.412758 -50.255580 0.000000 0.000000 0.000000 -28.339386 -21.646841 10.908098 -30.576688 -18.091484 -0.845817 39.109439 -40.626815 -12.909711 0.000000 0.000000 0.000000 34.868421 3.982901 2.603987 35.543091 12.427596 -2.446983 -18.071300 49.326438 -5.118098 0.000000 0.000000 0.000000 
0.334037 0.870211 -0.415540 -5.394647 -14.730110 13.905203 14.853879 3.376617 -34.064950 -6.939084 5.265037 42.088541 3.442788 6.348806 -3.732527 0.000000 0.000000 0.000000 -8.875118 3.073456 -34.554102 15.105472 -2.482745 29.048271 -11.431653 -28.117619 11.718384 0.000000 0.000000 0.000000 1.922925 1.244759 60.959480 -3.758798 1.183899 -34.854378 -1.084684 8.961635 27.533602 18.139720 -2.527454 -50.050750 0.000000 0.000000 0.000000 -28.590137 -21.389995 10.831356 -30.426113 -18.171472 -0.861008 39.475120 -41.959326 -13.508308 0.000000 0.000000 0.000000 35.147153 4.057773 2.600768 35.544939 12.754413 -2.373142 -19.188553 50.204072 -5.721687 0.000000 0.000000 0.000000 
